<svg width="44" height="44" viewBox="0 0 44 44" fill="none" xmlns="http://www.w3.org/2000/svg">
<path d="M22 5.50024C26.4807 5.50024 27.0429 5.51888 28.8018 5.59985C30.1706 5.62727 31.5255 5.88721 32.8076 6.36743C33.9037 6.79129 34.8995 7.43888 35.7305 8.26978C36.5616 9.10076 37.2098 10.0965 37.6338 11.1926C38.1139 12.4745 38.3729 13.8289 38.4004 15.1975C38.4807 16.9571 38.5 17.5194 38.5 22.0002C38.5 26.4809 38.481 27.0431 38.4014 28.802C38.374 30.1708 38.115 31.5257 37.6348 32.8079C37.2109 33.904 36.5625 34.8997 35.7314 35.7307C34.9003 36.5618 33.9039 37.2101 32.8076 37.634C31.5256 38.1142 30.1714 38.3732 28.8027 38.4006C27.0429 38.4809 26.4809 38.5002 22 38.5002C17.5189 38.5002 16.9564 38.4812 15.1973 38.4016C13.8286 38.3742 12.4744 38.1152 11.1924 37.635C10.0963 37.2111 9.10058 36.5627 8.26953 35.7317C7.43843 34.9006 6.79014 33.9041 6.36621 32.8079C5.88607 31.5258 5.62702 30.1717 5.59961 28.803C5.51931 27.0432 5.5 26.4812 5.5 22.0002C5.5 17.5191 5.51931 16.9567 5.59961 15.1975C5.62705 13.8288 5.88601 12.4746 6.36621 11.1926C6.79014 10.0964 7.43843 9.10087 8.26953 8.26978C9.10063 7.43868 10.0961 6.79039 11.1924 6.36646C12.4743 5.88629 13.8287 5.62733 15.1973 5.59985C16.9569 5.51957 17.5191 5.50024 22 5.50024ZM22 8.4729C17.5944 8.4729 17.0718 8.49024 15.332 8.56958C14.2859 8.58209 13.2496 8.77353 12.2686 9.13696C11.557 9.41154 10.9104 9.83202 10.3711 10.3713C9.83178 10.9107 9.41127 11.5572 9.13672 12.2688C8.7732 13.25 8.58179 14.2869 8.56934 15.3333C8.48988 17.0728 8.47266 17.5949 8.47266 22.0002C8.47266 26.4056 8.49001 26.9278 8.56934 28.6672C8.58179 29.7135 8.77321 30.7505 9.13672 31.7317C9.41121 32.4431 9.83199 33.089 10.3711 33.6282C10.9104 34.1674 11.5571 34.588 12.2686 34.8625C13.2496 35.226 14.2859 35.4184 15.332 35.4309C17.0717 35.5104 17.5939 35.5276 22 35.5276C26.4057 35.5276 26.9276 35.5102 28.667 35.4309C29.7133 35.4185 30.7502 35.2261 31.7314 34.8625C32.4429 34.588 33.0887 34.1674 33.6279 33.6282C34.1671 33.0889 34.5877 32.4431 34.8623 31.7317C35.2258 30.7505 35.4182 29.7135 35.4307 28.6672C35.5101 26.9278 35.5273 26.4056 35.5273 22.0002C35.5273 17.5949 35.51 17.0727 35.4307 15.3333C35.4182 14.2869 35.2258 13.25 34.8623 12.2688C34.5877 11.5574 34.1671 10.9116 33.6279 10.3723C33.0887 9.8331 32.4429 9.41251 31.7314 9.13794C30.7502 8.77443 29.7133 8.58204 28.667 8.56958C26.9274 8.49012 26.4053 8.4729 22 8.4729ZM22 13.5276C24.2471 13.5276 26.4022 14.4201 27.9912 16.009C29.5802 17.598 30.4727 19.7531 30.4727 22.0002C30.4727 23.676 29.9758 25.3139 29.0449 26.7073C28.1139 28.1007 26.7904 29.1871 25.2422 29.8284C23.694 30.4696 21.9902 30.6377 20.3467 30.3108C18.7031 29.9839 17.1937 29.1764 16.0088 27.9915C14.8239 26.8065 14.0164 25.2971 13.6895 23.6536C13.3625 22.01 13.5306 20.3062 14.1719 18.7581C14.8131 17.21 15.8988 15.8863 17.292 14.9553C18.6854 14.0243 20.3242 13.5276 22 13.5276ZM24.1045 16.9192C23.0995 16.5029 21.9937 16.3935 20.9268 16.6057C19.8599 16.8179 18.8795 17.3424 18.1104 18.1116C17.3414 18.8806 16.8177 19.8604 16.6055 20.927C16.3933 21.9939 16.5027 23.0998 16.9189 24.1047C17.3352 25.1097 18.0399 25.9691 18.9443 26.5735C19.8488 27.1778 20.9123 27.5002 22 27.5002C23.4586 27.5002 24.8573 26.9203 25.8887 25.8889C26.9201 24.8575 27.5 23.4589 27.5 22.0002C27.5 20.9125 27.1775 19.849 26.5732 18.9446C25.9689 18.0401 25.1095 17.3355 24.1045 16.9192ZM30.8076 11.2122C31.9011 11.2122 32.7871 12.0991 32.7871 13.1926C32.7869 14.286 31.901 15.1721 30.8076 15.1721C29.7142 15.1721 28.8273 14.286 28.8271 13.1926C28.8271 12.0991 29.7141 11.2122 30.8076 11.2122Z" fill="#131313"/>
</svg>
