<svg width="158" height="56" viewBox="0 0 158 56" fill="none" xmlns="http://www.w3.org/2000/svg">
<path d="M156.469 28.8525C156.469 28.8525 145.032 44.3031 127.278 46.3233C109.232 48.3766 84.8615 37.0336 87.8882 19.1584C89.5164 9.54276 95.0709 3.3252 104.824 3.92175C114.543 4.5163 120.439 11.4525 121.833 21.0723C124.817 41.6683 97.7862 55.8539 76.9682 54.7187C56.1084 53.5812 30.2374 36.3645 35.5875 16.2096C38.0899 6.78296 44.5359 0.237837 54.2711 1.07144C63.8136 1.88855 70.0641 8.73973 71.2802 18.222C73.8746 38.4526 48.0784 54.991 27.8726 51.9505C14.6794 49.9653 6.06155 43.2109 0.999826 30.8887" stroke="#4A3AFF" stroke-width="2" stroke-linecap="round"/>
</svg>
