<svg width="232" height="75" viewBox="0 0 232 75" fill="none" xmlns="http://www.w3.org/2000/svg">
<path d="M1.00038 36.2569C1.00038 36.2569 22.7204 13.8773 41.5178 9.31734C66.491 3.25928 84.4324 38.2606 82.8206 55.587C81.2089 72.9133 64.2855 74.5251 53.4061 72.9133C42.5268 71.3016 34.2665 57.9447 38.0945 42.8944C41.9224 27.8442 67.543 -0.445644 103.272 2.42012C139.002 5.28589 156.25 24.761 142.322 44.7713C137.221 52.0997 130.577 55.8209 123.638 57.9447C116.699 60.0684 102.34 56.2365 103.51 41.6583C104.679 27.0802 134.589 2.65155 160.159 6.98288C183.061 10.8621 204.561 28.3178 203.122 46.2611C201.682 64.2044 184.728 62.8446 181.085 62.5524C177.442 62.2602 167.607 60.0596 166.702 46.7268C165.797 33.394 176.058 -8.38948 230.853 2.91877" stroke="#4A3AFF" stroke-width="2" stroke-linecap="round"/>
</svg>
