<svg width="250" height="53" viewBox="0 0 490 103" fill="none" xmlns="http://www.w3.org/2000/svg">
<path d="M45.0898 101.111V79.2488H0V59.9831L39.4878 1.36636H52.8781L12.2972 62.5792V68.0447H45.0898V43.7235H57.3871V101.111H45.0898Z" fill="#121212"/>
<path d="M109.255 102.477C103.152 102.477 97.8234 101.293 93.2689 98.9244C88.8055 96.4649 85.344 93.049 82.8846 88.6767C80.4251 84.2132 79.1954 79.0211 79.1954 73.1002V29.3767C79.1954 23.3647 80.4251 18.1726 82.8846 13.8002C85.344 9.42787 88.8055 6.05752 93.2689 3.68916C97.8234 1.22972 103.152 0 109.255 0C115.449 0 120.778 1.22972 125.242 3.68916C129.705 6.05752 133.167 9.42787 135.626 13.8002C138.085 18.1726 139.315 23.3647 139.315 29.3767V73.1002C139.315 79.0211 138.085 84.2132 135.626 88.6767C133.167 93.049 129.66 96.4649 125.105 98.9244C120.642 101.293 115.358 102.477 109.255 102.477ZM109.255 91.9559C114.721 91.9559 119.093 90.2252 122.372 86.7638C125.743 83.2112 127.428 78.6567 127.428 73.1002V29.3767C127.428 23.8202 125.743 19.3112 122.372 15.8498C119.093 12.2972 114.721 10.521 109.255 10.521C103.79 10.521 99.372 12.2972 96.0016 15.8498C92.7224 19.3112 91.0827 23.8202 91.0827 29.3767V73.1002C91.0827 78.6567 92.7224 83.2112 96.0016 86.7638C99.372 90.2252 103.79 91.9559 109.255 91.9559ZM109.255 59.3C106.796 59.3 104.792 58.5257 103.243 56.9771C101.786 55.4286 101.057 53.3791 101.057 50.8285C101.057 48.3691 101.786 46.4106 103.243 44.9532C104.792 43.4047 106.796 42.6304 109.255 42.6304C111.715 42.6304 113.673 43.4047 115.131 44.9532C116.679 46.4106 117.453 48.3691 117.453 50.8285C117.453 53.3791 116.679 55.4286 115.131 56.9771C113.673 58.5257 111.715 59.3 109.255 59.3Z" fill="#121212"/>
<path d="M203.481 101.111V79.2488H158.391V59.9831L197.879 1.36636H211.269L170.688 62.5792V68.0447H203.481V43.7235H215.778V101.111H203.481Z" fill="#121212"/>
<path d="M248.401 43.1105V15.7648H256.043C257.841 15.7648 259.402 16.1144 260.725 16.8137C262.049 17.488 263.073 18.4494 263.797 19.6981C264.546 20.9468 264.921 22.4202 264.921 24.1184V34.7195C264.921 36.3927 264.546 37.8661 263.797 39.1398C263.073 40.4134 262.049 41.3999 260.725 42.0991C259.402 42.7734 257.841 43.1105 256.043 43.1105H248.401ZM252.447 39.4395H256.043C257.541 39.4395 258.715 39.0274 259.564 38.2033C260.438 37.3542 260.875 36.1929 260.875 34.7195V24.1184C260.875 22.6699 260.438 21.5336 259.564 20.7095C258.715 19.8604 257.541 19.4359 256.043 19.4359H252.447V39.4395Z" fill="#121212"/>
<path d="M271.424 43.1105V39.5144H276.931V19.361H271.424V15.7648H286.558V19.361H281.051V39.5144H286.558V43.1105H271.424Z" fill="#121212"/>
<path d="M299.43 43.1105V33.0338L291.301 15.7648H295.496L300.329 26.1037C300.653 26.778 300.915 27.4148 301.115 28.0142C301.315 28.5886 301.452 29.0381 301.527 29.3627C301.577 29.0381 301.702 28.5886 301.902 28.0142C302.127 27.4148 302.389 26.778 302.689 26.1037L307.408 15.7648H311.604L303.475 33.0338V43.1105H299.43Z" fill="#121212"/>
<path d="M246.004 88.2978V84.5893H246.79C247.764 84.5893 248.476 84.1398 248.925 83.2407C249.4 82.3417 249.65 80.8808 249.675 78.8579L249.974 60.7648H264.546V88.1105H260.501V64.4733H253.982L253.72 78.8579C253.67 82.0046 253.083 84.3645 251.96 85.9379C250.861 87.5112 249.225 88.2978 247.052 88.2978H246.004Z" fill="#121212"/>
<path d="M269.364 88.1105L276.331 60.7648H281.651L288.618 88.1105H284.535L282.887 81.1805H275.133L273.484 88.1105H269.364ZM275.882 77.8465H282.1L280.227 69.9425C279.903 68.544 279.628 67.3328 279.403 66.3089C279.203 65.26 279.066 64.5483 278.991 64.1737C278.916 64.5483 278.779 65.26 278.579 66.3089C278.379 67.3328 278.105 68.5315 277.755 69.905L275.882 77.8465Z" fill="#121212"/>
<path d="M293.436 88.1105V60.7648H309.244V64.4733H297.407V71.8904H301.677C303.475 71.8904 305.024 72.2275 306.322 72.9018C307.621 73.5761 308.62 74.5251 309.319 75.7488C310.043 76.9475 310.405 78.3585 310.405 79.9817C310.405 81.63 310.043 83.0659 309.319 84.2896C308.62 85.4883 307.621 86.4248 306.322 87.0991C305.024 87.7734 303.475 88.1105 301.677 88.1105H293.436ZM297.407 84.5518H301.677C303.126 84.5518 304.249 84.1523 305.049 83.3531C305.873 82.529 306.285 81.4177 306.285 80.0192C306.285 78.5957 305.873 77.4844 305.049 76.6853C304.249 75.8611 303.126 75.4491 301.677 75.4491H297.407V84.5518Z" fill="#121212"/>
<path d="M323.914 88.4851C322.215 88.4851 320.742 88.173 319.493 87.5486C318.27 86.8993 317.321 85.9753 316.646 84.7766C315.997 83.5529 315.672 82.1294 315.672 80.5062V68.3692C315.672 66.7209 315.997 65.2975 316.646 64.0987C317.321 62.9 318.27 61.9885 319.493 61.3642C320.742 60.7149 322.215 60.3902 323.914 60.3902C325.612 60.3902 327.073 60.7149 328.296 61.3642C329.545 61.9885 330.494 62.9 331.143 64.0987C331.818 65.2975 332.155 66.7084 332.155 68.3317V80.5062C332.155 82.1294 331.818 83.5529 331.143 84.7766C330.494 85.9753 329.545 86.8993 328.296 87.5486C327.073 88.173 325.612 88.4851 323.914 88.4851ZM323.914 84.889C325.287 84.889 326.324 84.5144 327.023 83.7652C327.747 82.991 328.109 81.9047 328.109 80.5062V68.3692C328.109 66.9457 327.747 65.8594 327.023 65.1102C326.324 64.361 325.287 63.9864 323.914 63.9864C322.565 63.9864 321.529 64.361 320.804 65.1102C320.08 65.8594 319.718 66.9457 319.718 68.3692V80.5062C319.718 81.9047 320.08 82.991 320.804 83.7652C321.529 84.5144 322.565 84.889 323.914 84.889Z" fill="#121212"/>
<path d="M338.284 88.1105V60.7648H347.237C349.01 60.7648 350.546 61.1019 351.844 61.7762C353.168 62.4505 354.179 63.412 354.878 64.6606C355.603 65.8843 355.965 67.3328 355.965 69.006C355.965 70.6542 355.603 72.1027 354.878 73.3513C354.154 74.6 353.143 75.5615 351.844 76.2357C350.546 76.91 349.01 77.2472 347.237 77.2472H342.329V88.1105H338.284ZM342.329 73.6135H347.237C348.635 73.6135 349.746 73.2015 350.57 72.3774C351.42 71.5283 351.844 70.4045 351.844 69.006C351.844 67.5825 351.42 66.4587 350.57 65.6346C349.746 64.8105 348.635 64.3984 347.237 64.3984H342.329V73.6135Z" fill="#121212"/>
<path d="M359.209 88.1105L366.177 60.7648H371.496L378.463 88.1105H374.38L372.732 81.1805H364.978L363.33 88.1105H359.209ZM365.727 77.8465H371.945L370.072 69.9425C369.748 68.544 369.473 67.3328 369.248 66.3089C369.049 65.26 368.911 64.5483 368.836 64.1737C368.761 64.5483 368.624 65.26 368.424 66.3089C368.224 67.3328 367.95 68.5315 367.6 69.905L365.727 77.8465Z" fill="#121212"/>
<path d="M389.275 88.1105V64.4733H381.97V60.7273H400.625V64.4733H393.32V88.1105H389.275Z" fill="#121212"/>
<path d="M413.759 88.4851C412.061 88.4851 410.587 88.173 409.339 87.5486C408.115 86.8993 407.166 85.9753 406.492 84.7766C405.842 83.5529 405.518 82.1294 405.518 80.5062V68.3692C405.518 66.7209 405.842 65.2975 406.492 64.0987C407.166 62.9 408.115 61.9885 409.339 61.3642C410.587 60.7149 412.061 60.3902 413.759 60.3902C415.457 60.3902 416.918 60.7149 418.142 61.3642C419.39 61.9885 420.339 62.9 420.989 64.0987C421.663 65.2975 422 66.7084 422 68.3317V80.5062C422 82.1294 421.663 83.5529 420.989 84.7766C420.339 85.9753 419.39 86.8993 418.142 87.5486C416.918 88.173 415.457 88.4851 413.759 88.4851ZM413.759 84.889C415.132 84.889 416.169 84.5144 416.868 83.7652C417.592 82.991 417.954 81.9047 417.954 80.5062V68.3692C417.954 66.9457 417.592 65.8594 416.868 65.1102C416.169 64.361 415.132 63.9864 413.759 63.9864C412.41 63.9864 411.374 64.361 410.65 65.1102C409.925 65.8594 409.563 66.9457 409.563 68.3692V80.5062C409.563 81.9047 409.925 82.991 410.65 83.7652C411.374 84.5144 412.41 84.889 413.759 84.889Z" fill="#121212"/>
<path d="M428.129 88.1105V60.7648H437.082C438.855 60.7648 440.391 61.1019 441.689 61.7762C443.013 62.4505 444.024 63.412 444.724 64.6606C445.448 65.8843 445.81 67.3328 445.81 69.006C445.81 70.6542 445.448 72.1027 444.724 73.3513C443.999 74.6 442.988 75.5615 441.689 76.2357C440.391 76.91 438.855 77.2472 437.082 77.2472H432.174V88.1105H428.129ZM432.174 73.6135H437.082C438.48 73.6135 439.592 73.2015 440.416 72.3774C441.265 71.5283 441.689 70.4045 441.689 69.006C441.689 67.5825 441.265 66.4587 440.416 65.6346C439.592 64.8105 438.48 64.3984 437.082 64.3984H432.174V73.6135Z" fill="#121212"/>
<path d="M451.115 88.1105V84.5144H456.621V64.361H451.115V60.7648H466.248V64.361H460.742V84.5144H466.248V88.1105H451.115Z" fill="#121212"/>
<path d="M471.778 88.1105L477.247 76.3481C475.649 75.8237 474.388 74.8872 473.464 73.5386C472.539 72.1901 472.077 70.6043 472.077 68.7812C472.077 67.158 472.427 65.747 473.126 64.5483C473.851 63.3495 474.85 62.4255 476.123 61.7762C477.422 61.1019 478.933 60.7648 480.656 60.7648H489.159V88.1105H485.114V76.8726H481.293L476.31 88.1105H471.778ZM480.656 73.3139H485.114V64.3235H480.656C479.307 64.3235 478.221 64.7356 477.397 65.5597C476.598 66.3588 476.198 67.4576 476.198 68.8561C476.198 70.2047 476.598 71.291 477.397 72.1152C478.221 72.9143 479.307 73.3139 480.656 73.3139Z" fill="#121212"/>
</svg>
