<svg width="168" height="38" viewBox="0 0 168 38" fill="none" xmlns="http://www.w3.org/2000/svg">
<g clip-path="url(#clip0_5_200)">
<path d="M39.4197 37.9673C39.0647 37.8387 38.7131 37.6997 38.4511 37.4043C38.0237 36.9282 37.9823 36.3652 38.1168 35.7778C38.4408 34.3668 38.5063 32.9384 38.4063 31.4996C38.3925 31.2806 38.3615 31.0652 38.3374 30.8288C38.2443 30.8254 38.1616 30.8149 38.0788 30.8149C36.6001 30.8149 35.1247 30.8149 33.6459 30.8115C33.4977 30.8115 33.4046 30.8566 33.3047 30.9644C32.8945 31.4092 32.3739 31.5378 31.8017 31.3849C31.264 31.2424 30.902 30.9018 30.7848 30.3353C30.647 29.6854 31.1433 28.9799 31.85 28.8374C32.4325 28.7193 32.9324 28.8652 33.3426 29.3136C33.3977 29.3761 33.4908 29.4387 33.5666 29.4387C35.0592 29.4422 36.5552 29.4387 38.0478 29.4352C38.0547 29.4352 38.0651 29.4283 38.1271 29.4074C37.8824 28.6532 37.6411 27.8991 37.386 27.1484C37.3687 27.0928 37.2619 27.0372 37.1964 27.0372C36.4863 27.0302 35.7796 27.0268 35.0696 27.0407C34.973 27.0441 34.8593 27.1275 34.7869 27.204C34.1044 27.9199 32.8427 27.7774 32.3981 26.926C32.012 26.1822 32.4222 25.2995 33.2771 25.0771C33.8803 24.9207 34.4112 25.0701 34.8352 25.5497C34.88 25.6018 34.9524 25.6644 35.011 25.6644C35.5728 25.6748 36.1347 25.6679 36.7345 25.6679C35.5832 23.3637 34.0527 21.3584 32.5946 19.2766C30.9503 20.1316 29.3853 21.0908 27.91 22.2759C28.0134 22.2863 28.0755 22.3002 28.1341 22.3002C28.8166 22.3002 29.5025 22.3072 30.1851 22.2933C30.2919 22.2898 30.4229 22.2272 30.4953 22.1473C31.1158 21.4731 32.2257 21.5078 32.7945 22.2272C33.3839 22.9814 32.8945 24.1283 31.9051 24.2812C31.3433 24.3681 30.8538 24.2256 30.4677 23.7842C30.416 23.7251 30.316 23.6799 30.2368 23.6765C28.9958 23.6695 27.7549 23.6695 26.5139 23.6765C26.4312 23.6765 26.3243 23.7147 26.2726 23.7738C25.7487 24.3716 25.2351 24.9763 24.718 25.5775C24.7318 25.6018 24.7456 25.6227 24.7594 25.647C24.8283 25.654 24.8973 25.6644 24.9662 25.6644C25.9383 25.6644 26.9069 25.6714 27.879 25.6574C27.9927 25.6574 28.1341 25.5879 28.2099 25.5045C28.8062 24.8546 29.9058 24.8546 30.4608 25.5184C30.7814 25.9007 30.8676 26.3421 30.678 26.8043C30.4712 27.3083 30.0679 27.5863 29.5336 27.6489C29.0062 27.7114 28.5546 27.5481 28.1892 27.1449C28.1306 27.0824 28.0203 27.0337 27.9341 27.0337C26.6587 27.0268 25.3833 27.0268 24.1113 27.0337C24.0355 27.0337 23.9114 27.0789 23.8873 27.1345C23.5598 27.8852 23.2427 28.6393 22.9049 29.4387H24.5905C25.173 29.4387 25.7556 29.4456 26.3381 29.4317C26.445 29.4283 26.5794 29.3657 26.6518 29.2858C27.3068 28.549 28.5718 28.6567 29.0475 29.4978C29.5129 30.3249 28.9303 31.3502 27.9583 31.4266C27.4274 31.4683 26.9827 31.3084 26.6208 30.9088C26.5691 30.8497 26.4657 30.8115 26.3864 30.8115C25.1868 30.8045 23.9907 30.8115 22.7911 30.8045C22.6325 30.8045 22.567 30.8462 22.5498 31.013C22.4912 31.5691 22.3843 32.1217 22.3637 32.6778C22.3292 33.6578 21.5639 34.4085 20.5884 34.3633C19.768 34.3251 19.0958 33.8351 18.9511 33.0983C18.8856 32.7646 18.8925 32.3997 18.9338 32.0591C19.3096 28.9278 20.3851 26.0571 22.2086 23.4853C23.5012 21.6607 25.1386 20.1767 26.9793 18.9326C28.172 18.1263 29.437 17.4242 30.6711 16.6735C30.7125 16.6457 30.7573 16.6214 30.8228 16.5832C30.5504 16.121 30.2781 15.6692 30.0127 15.2104C29.1889 13.7924 28.4753 12.3293 28.0651 10.7306C27.617 8.98942 27.5722 7.23435 27.9548 5.48275C28.1996 4.35324 28.8752 3.49829 29.861 2.90052C30.5608 2.47653 31.3054 2.18112 32.174 1.97607C31.4501 4.18642 31.1433 6.40025 31.457 8.68706C31.7707 10.9635 32.6187 13.0279 33.7907 14.9984C35.9072 13.7646 37.8686 12.3362 39.4577 10.47C41.0261 8.6245 42.4394 6.66091 43.3735 4.36019C43.8803 4.96144 44.5697 6.18478 44.773 6.95979C45.0247 7.86687 44.7317 8.82608 44.5076 9.42732C44.1009 10.2927 43.8389 10.6403 43.2219 11.4883C41.6155 13.6951 39.8575 14.8316 37.6169 16.3677C36.9551 16.8195 36.2726 17.2435 35.5728 17.6988C35.7521 17.9525 35.9348 18.2131 36.1209 18.4703C37.3308 20.1663 38.5407 21.8623 39.5438 23.6973C40.6124 25.654 41.3742 27.7149 41.7017 29.9287C41.9223 31.4405 41.9396 32.9593 41.781 34.478C41.7224 35.0445 41.6466 35.6075 41.5638 36.1705C41.4432 37.0185 41.1192 37.7206 40.1988 37.9499C39.9265 37.9673 39.6748 37.9673 39.4197 37.9673Z" fill="black"/>
<path d="M166.996 24.5382C166.848 24.8336 166.758 25.1742 166.537 25.4175C165.934 26.0813 164.845 26.196 163.987 25.7372C160.06 23.6311 156.134 20.5971 152.208 18.491C152.153 18.4632 152.098 18.4354 151.998 18.3867C151.998 18.9637 151.994 20.1244 151.998 20.6666C152.012 22.2549 152.025 22.4669 152.056 24.0551C152.063 24.4305 152.087 24.7919 151.874 25.1394C151.491 25.7581 150.619 26.1195 149.788 25.9909C148.982 25.8658 148.351 25.3306 148.227 24.6355C148.192 24.4409 148.247 24.2358 148.247 24.0343C148.223 21.0246 148.234 18.0149 148.158 15.0052C148.13 13.9278 148.888 13.3092 149.685 13.1841C150.216 13.1007 150.712 13.1841 151.181 13.4378C155.104 15.5473 159.033 19.3425 162.959 21.4486C163.008 21.4729 163.056 21.4972 163.135 21.5355C163.142 21.4277 163.152 21.3478 163.152 21.2678C163.149 19.0853 163.146 16.7742 163.139 14.5916C163.135 13.6324 164.204 12.8574 165.321 13.0068C166.169 13.1215 166.713 13.5525 167.003 14.258C166.996 17.6395 166.996 21.1532 166.996 24.5382Z" fill="black"/>
<path d="M54.6564 12.9517C55.925 12.9517 57.1969 12.8926 58.462 12.9621C61.0577 13.1046 63.0673 14.2584 64.3082 16.6182C64.9184 17.779 64.9873 19.0406 64.8804 20.3195C64.6392 23.2388 62.1676 25.4978 59.2962 25.8767C58.8377 25.9392 58.3724 25.9705 57.9105 25.974C55.6561 25.9844 53.4052 25.974 51.1508 25.9809C49.7685 25.9844 48.5724 26.9401 48.3069 28.2295C48.2897 28.3094 48.2863 28.3998 48.3001 28.4797C48.531 29.7622 47.3935 30.7248 46.2215 30.5997C45.2873 30.5024 44.6565 29.9464 44.491 29.1262C44.4566 28.9593 44.4566 28.7856 44.4669 28.6153C44.4945 28.0766 44.5565 27.5344 44.56 26.9957C44.5738 24.556 44.5945 22.1128 44.56 19.6731C44.5462 18.6339 44.6531 17.6434 45.1046 16.7051C46.0836 14.6894 47.7106 13.5181 49.865 13.0698C50.3062 12.9795 50.7647 12.9586 51.2163 12.9517C52.3641 12.9412 53.5086 12.9517 54.6564 12.9517ZM48.2828 23.1554C48.3449 23.1381 48.3897 23.1276 48.431 23.1068C49.3411 22.721 50.2925 22.5611 51.2783 22.5646C53.6154 22.5681 55.9525 22.575 58.2897 22.5611C59.2859 22.5542 60.0856 22.1163 60.6923 21.3135C61.1749 20.674 61.2507 19.9442 61.2266 19.1761C61.2059 18.5262 60.9887 17.9736 60.5544 17.4975C59.8994 16.7815 59.0618 16.5209 58.1311 16.5209C55.8216 16.5139 53.5155 16.5035 51.2059 16.5313C50.7544 16.5348 50.2718 16.6217 49.8616 16.8024C49.0067 17.1812 48.3483 17.8207 48.3035 18.8112C48.2346 20.2396 48.2828 21.6819 48.2828 23.1554Z" fill="black"/>
<path d="M141.112 17.7578C140.516 16.8437 139.705 16.3989 138.699 16.3884C136.265 16.3641 133.832 16.3641 131.398 16.3884C130.04 16.4023 128.727 17.4102 128.44 18.637C127.979 20.6076 129.278 22.4461 131.288 22.5086C133.228 22.5677 135.169 22.526 137.11 22.5329C137.679 22.5364 138.247 22.5295 138.813 22.5573C139.892 22.6094 140.36 23.579 140.34 24.288C140.312 25.216 139.623 25.9076 138.678 25.9284C137.806 25.9493 136.937 25.9354 136.065 25.9354C134.514 25.9354 132.96 25.9771 131.408 25.9249C128.885 25.8415 126.841 24.8163 125.483 22.6094C124.787 21.4764 124.618 20.2149 124.697 18.9012C124.88 15.8915 127.248 13.6846 130.088 13.132C130.557 13.0416 131.046 12.9999 131.526 12.9965C133.883 12.9826 136.241 12.9478 138.599 12.9999C141.439 13.066 143.559 14.3797 144.859 16.941C145.193 17.6014 145.417 18.3173 145.348 19.0819C145.248 20.2357 144.304 21.1428 143.163 21.1428C139.271 21.1497 135.379 21.1463 131.488 21.1463C130.764 21.1463 130.202 20.8717 129.892 20.1801C129.588 19.5059 129.695 18.8768 130.147 18.3103C130.481 17.8933 130.946 17.7543 131.46 17.7543C134.376 17.7508 137.293 17.7543 140.209 17.7543C140.491 17.7578 140.774 17.7578 141.112 17.7578Z" fill="black"/>
<path d="M16.4248 17.7577C15.9284 17.014 15.301 16.5691 14.4703 16.4405C14.229 16.4023 13.9808 16.3849 13.7361 16.3849C11.4369 16.3814 9.13425 16.378 6.83505 16.3849C5.81127 16.3884 4.9633 16.7985 4.29457 17.57C3.9016 18.0253 3.68788 18.564 3.70512 19.1652C3.71891 19.6379 3.70167 20.1418 3.86368 20.5693C4.3118 21.7579 5.25285 22.4286 6.48345 22.4912C8.21043 22.5781 9.94775 22.5225 11.6782 22.5329C12.4917 22.5364 13.3086 22.5086 14.1187 22.5642C15.0563 22.6267 15.6733 23.36 15.6458 24.2845C15.6182 25.2263 14.9494 25.9075 13.9981 25.9318C13.288 25.9492 12.5779 25.9388 11.8678 25.9388C10.1546 25.9388 8.43794 25.9735 6.72819 25.9318C4.3704 25.8693 2.42281 24.9448 1.03019 22.9812C0.34078 22.0116 0.0339916 20.9099 0.00296799 19.7143C-0.0315027 18.3728 0.230474 17.1252 0.988829 16.0026C2.05742 14.4213 3.56379 13.5142 5.39763 13.1389C5.92158 13.0312 6.46622 13.0033 7.00396 12.9999C9.30315 12.986 11.6058 12.9512 13.905 13.0033C16.7798 13.0694 18.9205 14.4039 20.2028 17.0209C20.4475 17.5214 20.5888 18.0983 20.6681 18.6578C20.8164 19.6761 19.9684 21.1358 18.5999 21.1497C18.5344 21.1497 18.4689 21.1532 18.4 21.1532C14.5565 21.1532 10.713 21.1497 6.86952 21.1566C6.16287 21.1566 5.59066 20.9342 5.24251 20.2774C4.70821 19.273 5.26319 17.7577 6.76611 17.7612C9.86158 17.7681 12.957 17.7612 16.0525 17.7612C16.1525 17.7577 16.2559 17.7577 16.4248 17.7577Z" fill="black"/>
<path d="M117.762 21.1636C117.596 21.1636 117.493 21.1636 117.389 21.1636C115.807 21.1636 114.228 21.1636 112.646 21.1636C112.071 21.1636 111.529 21.0558 111.154 20.5588C110.726 19.9889 110.63 19.3668 110.936 18.7065C111.243 18.0461 111.795 17.7646 112.495 17.7611C114.001 17.7507 115.504 17.7577 117.01 17.7577C117.92 17.7577 118.83 17.7855 119.737 17.7507C121.316 17.6916 122.226 19.3251 121.991 20.5345C121.436 23.3878 118.982 25.3966 116.421 25.8136C115.938 25.8936 115.442 25.9214 114.952 25.9249C112.66 25.9353 110.371 25.9492 108.079 25.9249C106.176 25.904 104.504 25.2402 103.136 23.8987C101.764 22.5502 101.243 20.8786 101.347 18.9671C101.509 15.94 103.867 13.688 106.731 13.1284C107.255 13.0242 107.8 12.9929 108.337 12.9894C110.609 12.9755 112.881 12.986 115.152 12.9825C115.769 12.9825 116.314 13.125 116.679 13.681C117.055 14.2545 117.107 14.8522 116.803 15.4674C116.5 16.0825 115.983 16.3745 115.311 16.3745C112.936 16.3814 110.557 16.3779 108.182 16.3779C107.503 16.3779 106.89 16.5865 106.31 16.9479C104.632 17.994 104.739 20.4511 105.676 21.4138C106.286 22.0428 107 22.4912 107.886 22.5016C110.45 22.5259 113.015 22.5294 115.58 22.4946C116.5 22.4807 117.207 21.9907 117.762 21.1636Z" fill="black"/>
<path d="M88.1203 25.8797C86.8311 25.8797 85.5419 25.9422 84.2595 25.8658C81.5605 25.7059 79.4819 24.493 78.2375 22.0081C77.6963 20.9307 77.6687 19.763 77.7859 18.5987C78.0893 15.5751 80.5195 13.476 83.3357 13.0137C83.8183 12.9338 84.3147 12.9025 84.8042 12.9025C87.1241 12.8921 89.4439 12.8712 91.7638 12.906C93.8321 12.9338 95.6245 13.6741 97.024 15.2415C98.0306 16.371 98.4959 17.7159 98.5407 19.2312C98.5821 20.7361 98.2236 22.0984 97.2653 23.2731C96.0623 24.7501 94.5077 25.6503 92.629 25.7997C91.133 25.9179 89.6232 25.824 88.1203 25.824V25.8797ZM88.1444 22.446C89.2337 22.446 90.3229 22.4494 91.4088 22.4425C91.6535 22.4425 91.9017 22.4355 92.143 22.3938C94.1595 22.0637 95.1799 20.6283 94.6938 18.557C94.3939 17.2711 93.0806 16.3362 91.6363 16.3293C89.2992 16.3188 86.9586 16.3084 84.6215 16.3327C83.3047 16.3466 82.3154 16.9653 81.7053 18.1643C81.4433 18.6786 81.4915 19.2347 81.4881 19.7873C81.4847 20.3016 81.6398 20.7639 81.9535 21.167C82.6291 22.0393 83.546 22.4251 84.6215 22.439C85.7969 22.4564 86.9689 22.446 88.1444 22.446Z" fill="black"/>
<path d="M74.739 26.012C72.2951 25.7652 70.1889 24.9103 68.8515 22.686C68.2965 21.7616 68.0345 20.7502 68.0345 19.6694C68.0345 14.7517 68.0379 9.83051 68.031 4.91283C68.031 4.60004 67.938 4.28726 67.9552 3.98142C67.9966 3.18208 68.5343 2.57041 69.3478 2.34451C70.4957 2.02477 71.6436 2.7407 71.8125 3.88411C71.8263 3.97795 71.8263 4.07526 71.8228 4.16909C71.7918 4.77381 71.7298 5.38201 71.7263 5.98673C71.7194 10.543 71.7366 15.1027 71.7125 19.659C71.7056 21.0908 72.9431 22.2829 74.2427 22.4914C74.5426 22.5401 74.87 22.4427 75.1665 22.4984C76.1489 22.6826 76.8073 23.5097 76.7108 24.3785C76.6074 25.3308 75.7559 26.0363 74.739 26.012Z" fill="black"/>
<path d="M34.3802 3.91187L33.9976 5.17691L34.5009 5.29507L34.8697 4.07869L36.0245 4.34977L35.6556 5.56615L36.1589 5.68432L36.5277 4.46793L37.6825 4.73901L37.3137 5.9554L37.8169 6.07355L38.1858 4.85717L39.3405 5.12826L38.9717 6.34465L39.475 6.46281L39.8576 5.19776C40.6401 5.20819 41.3433 4.79809 41.5398 4.15514C41.7363 3.51567 41.3571 2.84839 40.6746 2.51476L41.0572 1.24971L40.5539 1.13155L40.1851 2.34794L39.0303 2.07686L39.3991 0.860462L38.8959 0.742299L38.527 1.95869L37.3723 1.68761L37.7411 0.471218L37.2378 0.353054L36.869 1.56945L35.7142 1.29837L36.0831 0.0819732L35.5798 -0.0327148L35.1972 1.23233C34.4147 1.22191 33.7115 1.63201 33.5184 2.27495C33.3185 2.91443 33.6942 3.57823 34.3802 3.91187Z" fill="black"/>
</g>
<defs>
<clipPath id="clip0_5_200">
<rect width="168" height="38" fill="white"/>
</clipPath>
</defs>
</svg>
