<svg id="Layer_1" xmlns="http://www.w3.org/2000/svg" width="150" height="53" version="1.1" viewBox="140.07 120.57 286.79 117.02">
    <polygon
            points="404.77 139.64 393.8 173.23 393.8 139.64 372.85 139.64 372.85 206.81 394.76 206.81 405.72 173.23 405.72 206.81 426.86 206.81 426.86 139.64 404.77 139.64"/>
    <path d="M348.74,138.16c-7.48,0-13.49,4.9-14.71,12.26l-2.45-11.03h-20.84v98.2h23.29v-41.8c1.23,7.36,7.23,12.26,14.71,12.26,13.12,0,19.61-11.65,19.61-34.94s-6.5-34.94-19.61-34.94ZM339.54,195.78c-3.8,0-5.52-7.11-5.52-22.68s1.72-22.68,5.52-22.68,5.52,7.11,5.52,22.68-1.72,22.68-5.52,22.68Z"/>
    <path d="M276.9,137.82c-18.51,0-28.81,12.5-28.81,34.94s10.3,34.94,28.81,34.94,28.81-12.5,28.81-34.94-10.3-34.94-28.81-34.94ZM276.9,195.44c-3.8,0-5.52-7.11-5.52-22.68s1.72-22.68,5.52-22.68,5.52,7.11,5.52,22.68-1.72,22.68-5.52,22.68Z"/>
    <polygon
            points="140.07 138.96 154.78 138.96 154.78 206.39 178.68 206.39 178.68 138.96 193.4 138.96 193.4 120.57 140.07 120.57 140.07 138.96"/>
    <path d="M228.26,170.92c8.65-.77,14.23-6.81,14.23-15.26,0-10.56-8.08-16.03-23.55-16.03h-22.58v67.18h23.06c17.4,0,25.96-6.33,25.96-19.1,0-10.27-6.06-16.22-17.11-16.79ZM217.49,151.15c4.04,0,6.25,2.5,6.25,7.1s-2.21,7.29-6.25,7.29v-14.39ZM217.49,195.3v-18.23c6.25,0,9.13,2.88,9.13,9.02s-2.88,9.21-9.13,9.21Z"/>
</svg>