<svg width="105" height="105" viewBox="0 0 105 105" fill="none" xmlns="http://www.w3.org/2000/svg">
<g clip-path="url(#clip0_5_181)">
<path d="M30.9443 38.3157C35.1591 39.6971 39.7848 41.4623 43.9785 42.9749L59.623 48.4524L59.6162 58.012C52.3646 57.9462 48.5461 59.7423 44.6426 65.9329C43.3172 68.0348 40.791 70.787 38.6592 72.137C39.3033 72.5633 39.6897 72.7967 40.3779 73.1438C43.2539 71.4385 45.3714 69.7771 47.7412 67.4534C51.2511 67.3851 52.9347 66.5733 56.0781 65.2297C57.4011 64.7484 58.2409 64.5171 59.623 64.2512L59.627 89.6711C58.9475 89.2284 58.2121 88.5822 57.5273 88.1155C55.3307 86.6188 53.3044 84.9812 51.1953 83.3792L38.9873 74.2268C36.3032 72.2118 33.6986 70.1411 30.9355 68.2346C31.0649 58.3582 30.9519 48.2121 30.9443 38.3157ZM50.4092 46.5403C50.0575 46.6204 49.6522 46.7237 49.3398 46.8967C48.3707 47.4339 47.2649 47.5233 46.1777 47.7542C44.9441 48.0163 44.1193 48.4173 42.9941 48.9377C43.0099 49.4972 42.937 50.129 43.3086 50.51C43.9737 50.6385 46.0223 50.461 45.792 51.4543C45.7465 51.6504 45.56 51.9064 45.4053 52.0344C44.8697 52.2482 43.6604 52.1832 43.0352 52.1848C43.1933 53.815 43.4147 53.9449 45.1279 53.7766C45.4417 53.7458 45.8916 53.7478 46.2188 53.7415C42.9444 55.6984 41.2282 57.0107 39.7217 60.5764C40.3508 60.3669 40.8491 60.2144 41.4922 60.053C41.3184 61.3615 41.231 62.567 41.6748 63.8479C42.0078 64.8113 42.3678 65.4464 42.8896 66.3245C43.2418 65.8279 43.5919 65.3207 43.9033 64.7981C45.9645 61.3396 49.3602 58.4154 53.3223 57.3069C53.2254 56.3972 53.1384 55.4551 53.0156 54.551C53.5479 54.8779 54.1365 55.2587 54.6729 55.5657C54.1874 52.5342 52.8898 50.0952 50.5215 48.1008C50.6583 47.6389 50.9062 47.0251 50.7295 46.5911C50.6011 46.5551 50.5409 46.5259 50.4092 46.5403ZM39.9336 61.9045C37.6727 62.6783 34.9482 63.0103 32.585 62.6633C32.7282 63.3515 32.8962 63.9405 33.0488 64.6047L34.2051 64.8811C36.9449 65.4221 38.2495 65.3744 40.9727 65.217C40.7642 64.7621 40.6771 64.4965 40.5234 64.0745C40.3743 63.6652 40.1487 62.0344 40.0352 61.9026L39.9336 61.9045Z" fill="#0089D1"/>
<path d="M31.041 35.7947C31.6169 35.8243 33.0008 36.0551 33.6508 36.1397L39.3304 36.865L58.898 39.3262L64.3362 40.0244C65.2467 40.1406 66.7114 40.3714 67.5876 40.36L67.5832 65.3926L67.5812 73.3925C67.581 74.8636 67.5295 76.7139 67.6349 78.1414C67.1037 77.8847 65.8308 76.9186 65.2976 76.5236L61.9024 74.0281C62.021 65.0132 61.8828 55.7906 61.9135 46.7496C58.5687 45.491 55.2728 44.431 51.9196 43.2669L40.3926 39.1742C38.3259 38.4557 36.2633 37.7252 34.205 36.9828C33.3286 36.6675 31.8417 36.1854 31.041 35.7947Z" fill="#AD1F90"/>
<path d="M32.6074 33.5808C34.2452 33.4384 36.2072 33.4927 37.8802 33.4594L48.3949 33.2918L76.2768 32.8281L76.2728 53.8011C76.2729 57.678 76.231 61.6466 76.2923 65.5176C74.2186 64.5964 71.9906 63.4803 69.9329 62.6252C69.8578 60.0103 69.9018 57.2438 69.9026 54.6196L69.9061 38.4355C66.1617 37.853 62.0853 37.4169 58.2908 36.9271C52.6327 36.1703 46.9678 35.465 41.2969 34.8115C39.5315 34.6158 37.7688 34.3965 36.0093 34.1534C35.347 34.0671 33.622 33.8258 32.9936 33.8338L32.6074 33.5808Z" fill="#F6821D"/>
<path d="M67.5177 22.2065L67.6831 22.2342C67.8548 22.7687 67.7262 29.6451 67.7255 30.6614C65.4276 30.641 63.053 30.7571 60.7482 30.8027L48.3321 30.9908L37.7348 31.17C35.9229 31.1929 33.6258 31.1069 31.8632 31.2409C31.8132 31.2396 31.7101 31.2069 31.6562 31.1925C31.975 30.9524 42.1841 28.4092 43.376 28.1462C51.4102 26.3738 59.5094 23.9517 67.5177 22.2065Z" fill="#EF1D26"/>
<path d="M58.9704 14.0845L59.0633 14.1751C59.1424 14.7003 59.1 16.2811 59.0988 16.8712L59.1034 21.957C58.4128 22.0376 56.525 22.569 55.7837 22.7629L49.5125 24.4117L31.3475 29.0771L31.2881 29.0428C31.39 28.8474 31.7589 28.6769 31.9726 28.5598L49.1483 19.298L54.9602 16.1915C56.1122 15.5677 57.8029 14.5836 58.9704 14.0845Z" fill="#00A751"/>
<path d="M32.9936 33.8339C32.6348 33.8118 31.8799 33.8047 31.5898 33.625C31.9243 33.5542 32.2646 33.5761 32.6074 33.581L32.9936 33.8339Z" fill="#D29F82"/>
</g>
<defs>
<clipPath id="clip0_5_181">
<rect width="104.785" height="104.785" fill="white"/>
</clipPath>
</defs>
</svg>
