<svg width="71" height="71" viewBox="0 0 71 71" fill="none" xmlns="http://www.w3.org/2000/svg">
<g clip-path="url(#clip0_5_192)">
<path d="M0 -0.0327148H70.7373V70.7046H0V-0.0327148Z" fill="#2DB497"/>
<path d="M2.87893 2.94074L67.6964 2.93262L67.6998 54.5151C67.6998 55.6463 67.7568 67.4948 67.666 67.7155L67.5682 67.729C64.2991 67.6768 60.9173 67.7193 57.6412 67.7193H38.7953L2.87402 67.721C2.9251 67.118 2.88968 65.945 2.88871 65.3088L2.88435 60.7854L2.88449 46.1738L2.87893 2.94074Z" fill="#FEFEFE"/>
<path d="M24.8924 15.3167C25.5956 15.248 26.5191 15.3483 27.2245 15.4782C29.9934 15.9881 31.9867 17.6288 33.7202 19.7482C34.162 20.2883 34.6196 20.844 35.0175 21.4127C34.3232 21.9922 33.5304 22.5338 32.8125 23.0897C32.4578 23.3644 31.9992 23.6801 31.6901 24.0001C31.5781 23.773 31.0976 23.135 30.9134 22.9171C29.4337 21.1669 28.2119 19.767 25.7842 19.5102C24.5902 19.389 23.2217 19.7474 22.2884 20.5122C21.0193 21.5522 20.5523 23.0984 20.9005 24.6759C21.4628 27.2243 23.637 28.6373 25.5761 30.1195C26.7644 31.0279 27.9524 31.8495 29.1178 32.7792C32.5871 35.5345 35.9981 39.1878 35.4562 43.9898C35.1778 46.6021 33.7542 48.8734 31.7166 50.4985C29.182 52.5194 26.4177 52.8434 23.3187 52.4928C18.8071 51.8069 16.3712 48.5764 14.2441 44.9096C15.1546 44.3553 16.0827 43.8303 16.9952 43.2794C17.2519 43.1243 17.5147 42.9699 17.744 42.7758C18.4015 44.29 19.8379 46.113 21.0689 47.2221C23.5892 49.4934 27.7709 49.13 29.9475 46.4259C30.8349 45.3276 31.2491 43.9215 31.0986 42.5174C30.6359 38.5498 24.3726 34.6282 21.476 32.2141C19.0933 30.2281 17.0753 28.3041 16.669 24.9822C16.3792 22.6116 16.9151 20.3704 18.4276 18.5037C19.7193 16.9341 21.5204 15.867 23.5175 15.4881C23.9228 15.4075 24.4742 15.3613 24.8924 15.3167Z" fill="#2DB497"/>
<path d="M44.7329 15.7265C46.0208 15.7004 47.3555 15.7118 48.6455 15.7166L48.6535 25.2777C50.4108 25.2456 52.2387 25.266 54.0012 25.2628L54.0092 28.6838L48.6386 28.6741L48.6507 51.3019L48.6552 51.8466C47.3865 51.8701 46.0702 51.8518 44.7981 51.8486C44.7401 50.6505 44.7812 49.2302 44.7816 48.0103L44.7829 41.0705L44.7826 33.266C44.7802 31.7892 44.7411 30.1331 44.794 28.6729L40.1515 28.6714L40.1377 25.262L44.7736 25.2589C44.7864 24.8114 44.7902 24.3319 44.7791 23.8833C44.7125 21.1953 44.8859 18.4048 44.7329 15.7265Z" fill="#2DB497"/>
<path d="M59.5256 9.92432L60.9355 9.9247L60.9362 17.8868L58.8887 17.891L58.8873 16.3909C58.8904 15.138 58.887 13.8852 58.8769 12.6324C58.4072 12.8541 57.9817 13.1897 57.5354 13.3845C57.3137 12.8434 57.0291 12.4194 56.6992 11.937C57.4125 11.4708 58.095 10.9318 58.7958 10.4456C59.0151 10.2933 59.3056 10.0264 59.5256 9.92432Z" fill="#2DB497"/>
</g>
<defs>
<clipPath id="clip0_5_192">
<rect width="70.7373" height="70.7373" fill="white"/>
</clipPath>
</defs>
</svg>
